<?xml version="1.0"?>
<svg xmlns:rdf="http://www.w3.org/1999/02/22-rdf-syntax-ns#" xmlns="http://www.w3.org/2000/svg" xmlns:cc="http://creativecommons.org/ns#" xmlns:xlink="http://www.w3.org/1999/xlink" xmlns:dc="http://purl.org/dc/elements/1.1/" xmlns:svg="http://www.w3.org/2000/svg" id="svg6776" viewBox="0 0 654.23 835.84" version="1.0">
  <defs id="defs6778">
    <linearGradient id="linearGradient8032">
      <stop id="stop8034" stop-color="#fff" offset="0"/>
      <stop id="stop8036" stop-color="#fff" stop-opacity="0" offset="1"/>
    </linearGradient>
    <linearGradient id="linearGradient7750" x1="422.07" spreadMethod="reflect" gradientUnits="userSpaceOnUse" y1="750.68" x2="406.24" y2="517.52">
      <stop id="stop7746" stop-color="#eeeeec" offset="0"/>
      <stop id="stop7836" stop-color="#eeeeec" offset=".60737"/>
      <stop id="stop7748" stop-color="#dfdfdc" offset="1"/>
    </linearGradient>
    <linearGradient id="linearGradient7878" x1="299.62" xlink:href="#linearGradient8032" gradientUnits="userSpaceOnUse" y1="204.55" gradientTransform="matrix(.89215 0 0 .89215 94.576 45.528)" x2="306.64" y2="273.85"/>
    <linearGradient id="linearGradient7882" x1="299.62" xlink:href="#linearGradient8032" gradientUnits="userSpaceOnUse" y1="204.55" gradientTransform="matrix(.39378 0 0 .39378 131.14 12.757)" x2="306.64" y2="273.85"/>
    <linearGradient id="linearGradient7886" x1="299.62" xlink:href="#linearGradient8032" gradientUnits="userSpaceOnUse" y1="204.55" gradientTransform="matrix(.39378 0 0 .39378 366.67 16.325)" x2="306.64" y2="273.85"/>
    <linearGradient id="linearGradient7921" x1="301.5" gradientUnits="userSpaceOnUse" y1="476.55" gradientTransform="matrix(.89215 0 0 .89215 96.36 49.989)" x2="308.64" y2="414.55">
      <stop id="stop7917" stop-color="#fff" offset="0"/>
      <stop id="stop7919" stop-color="#fff" stop-opacity="0" offset="1"/>
    </linearGradient>
    <linearGradient id="linearGradient7939" x1="299.62" xlink:href="#linearGradient8032" gradientUnits="userSpaceOnUse" y1="204.55" gradientTransform="matrix(.074286 0 0 .12171 388.77 307.28)" x2="306.64" y2="312.33"/>
    <linearGradient id="linearGradient7942" x1="299.62" xlink:href="#linearGradient8032" gradientUnits="userSpaceOnUse" y1="204.55" gradientTransform="matrix(.074286 0 0 .12171 289.3 310.18)" x2="306.64" y2="312.33"/>
    <linearGradient id="linearGradient7945" x1="299.62" xlink:href="#linearGradient8032" gradientUnits="userSpaceOnUse" y1="204.55" gradientTransform="matrix(.16184 0 0 .16184 313.08 340.33)" x2="306.64" y2="273.85"/>
    <linearGradient id="linearGradient7979" x1="299.62" xlink:href="#linearGradient8032" gradientUnits="userSpaceOnUse" y1="204.55" gradientTransform="matrix(.091993 -.067879 .11121 .15072 117.46 325.56)" x2="306.64" y2="312.33"/>
    <linearGradient id="linearGradient7983" x1="299.62" xlink:href="#linearGradient8032" gradientUnits="userSpaceOnUse" y1="204.55" gradientTransform="matrix(.10894 .034691 -.056838 .17848 546.02 285.65)" x2="306.64" y2="312.33"/>
    <linearGradient id="linearGradient8038" x1="4.7695" xlink:href="#linearGradient8032" gradientUnits="userSpaceOnUse" y1="844.36" gradientTransform="matrix(.89215 0 0 .89215 94.576 43.744)" x2="104.31" y2="903.05"/>
    <linearGradient id="linearGradient3237" y2="374.97" gradientUnits="userSpaceOnUse" y1="424.46" x2="389.18" x1="409.69">
      <stop id="stop3233" stop-color="#c17d11" offset="0"/>
      <stop id="stop3235" stop-color="#c17d11" stop-opacity="0" offset="1"/>
    </linearGradient>
    <linearGradient id="linearGradient5223" x1="4.7695" xlink:href="#linearGradient8032" gradientUnits="userSpaceOnUse" y1="844.36" gradientTransform="matrix(-.87168 -.19 -.19 .87168 797.77 88.88)" x2="104.31" y2="903.05"/>
  </defs>
  <g id="layer1" transform="translate(-33.161 -91.26)">
    <path id="path5225" fill="#cececb" d="m464.84 690.87c5.47 15.44 23.65 28.45 46.65 31.67 29.44 4.12 55.69-9.37 58.6-30.12 1-7.2-0.93-14.32-5.11-20.73 12.46-10.95 18.57-24.88 14.74-37.39-3.79-12.37-16.42-20.45-32.62-22.66 0.75-9.19-1.56-17.67-7.25-23.99-14.02-15.58-43.3-12.1-65.39 7.79-22.1 19.88-28.67 48.68-14.65 64.25 2.31 2.58 5.07 4.6 8.12 6.15-2.35 3.53-3.91 7.45-4.5 11.67-0.64 4.54-0.12 9.04 1.41 13.36z"/>
    <path id="path5216" fill-rule="evenodd" fill="#c17d11" d="m509.18 857.68c20.58 14.59 52.16 40.33 91.39 50.77 25.05 6.66 49.46 8.96 71.03 7.45-3.13 3.23-7.7 5.95-13.83 7.99-48.06 15.98-127.72-31.56-166.67-57.96 6.2-2.08 0.26-23.16 18.08-8.25z"/>
    <path id="path5208" fill-rule="evenodd" fill="#c17d11" d="m217.59 851.21c-23.65 8.81-60.78 25.57-101.38 25.57-25.922 0-50.097-4.06-70.559-11.07 2.196 3.93 5.912 7.74 11.313 11.29 42.336 27.79 131.54 2.34 175.97-13.16-5.45-3.61 5.71-22.45-15.34-12.63z"/>
    <path id="path7734" transform="matrix(.75445 0 0 .75445 59.445 13.355)" fill="url(#linearGradient7750)" d="m636 739.36a221 257 0 1 1 -442 0 221 257 0 1 1 442 0z"/>
    <path id="path7198" fill-rule="evenodd" fill="#eeeeec" d="m379.27 276.48s-50.3-216.44-150.9-181.38c-100.59 35.06 149.38 184.43 150.9 181.38z"/>
    <path id="path7732" fill-rule="evenodd" fill="#d854a9" d="m350.24 241.51s-31.64-136.16-94.93-114.1c-63.29 22.05 93.97 116.02 94.93 114.1z"/>
    <path id="path7200" fill-rule="evenodd" fill="#eeeeec" d="m367.61 273.44s41.15-210.35 141.75-175.29-140.23 178.33-141.75 175.29z"/>
    <path id="path7730" fill-rule="evenodd" fill="#d854a9" d="m397.23 241.51s31.64-136.16 94.92-114.1c63.29 22.05-93.97 116.02-94.92 114.1z"/>
    <path id="path7194" transform="matrix(.66392 0 0 .70476 93.815 69.215)" fill="#eeeeec" d="m618.21 380.61a202.03 168.7 0 1 1 -404.06 0 202.03 168.7 0 1 1 404.06 0z"/>
    <path id="path7754" fill-rule="evenodd" fill="#eeeeec" d="m260.13 463.28s-39.23-164.47-93.55-147.87 64.88 190.12 64.88 190.12l28.67-42.25z"/>
    <path id="path7756" fill-rule="evenodd" fill="#c17d11" d="m176.48 329.87c-1.71 0.01-3.46 0.28-5.22 0.81-15.71 4.8-10.44 28.56 1.01 54.6 8.97-12.63 21.79-22 36.6-26.15-9.11-16.58-20.11-29.35-32.39-29.26z"/>
    <path id="path7761" fill-rule="evenodd" fill="#eeeeec" d="m481.33 463.28s39.24-164.47 93.56-147.87-64.89 190.12-64.89 190.12l-28.67-42.25z"/>
    <path id="path7763" fill-rule="evenodd" fill="#c17d11" d="m564.98 329.87c1.72 0.01 3.46 0.28 5.22 0.81 15.71 4.8 10.44 28.56-1.01 54.6-8.97-12.63-21.79-22-36.6-26.15 9.11-16.58 20.12-29.35 32.39-29.26z"/>
    <path id="path7765" stroke-linejoin="round" d="m444.29 463.43a67.143 63.214 0 1 1 -134.29 0 67.143 63.214 0 1 1 134.29 0z" transform="matrix(.94547 0 0 1.8405 12.498 -218.5)" stroke="#c17d11" stroke-linecap="round" stroke-width="6.0868" fill="#e9b96e"/>
    <path id="path7816" fill-rule="evenodd" fill="#eeeeec" d="m279.51 657.96c-0.24 0.01-0.47 0.02-0.71 0.05-60.14 7.65-90.6 87.97-86.34 142.69-100.55-15.12-195.56 38.98-145.53 71.83 57.65 37.86 202.28-23.08 202.28-23.08s1.07-3.62 1.63-8.6c36.92-34.43 58.23-141.72 58.23-141.72s-14.61-41.71-29.56-41.17z"/>
    <path id="path7867" fill="url(#linearGradient7878)" d="m368.14 228.02c-56.22 0-102.6 37.5-109.09 85.79 0 0 54.57-49.76 112.19-28.94 62.57 22.6 105.99 28.94 105.99 28.94-6.49-48.29-52.86-85.79-109.09-85.79z"/>
    <path id="path7880" fill="url(#linearGradient7882)" d="m251.89 93.304c-24.81 0-45.28 16.556-48.15 37.866 0 0 24.08-21.96 49.52-12.77 27.61 9.97 46.78 12.77 46.78 12.77-2.86-21.31-23.33-37.866-48.15-37.866z"/>
    <path id="path7884" fill="url(#linearGradient7886)" d="m487.42 96.873c-24.82 0-45.29 16.547-48.15 37.867 0 0 24.08-21.96 49.52-12.78 27.61 9.98 46.78 12.78 46.78 12.78-2.87-21.32-23.34-37.867-48.15-37.867z"/>
    <path id="path7900" fill="url(#linearGradient7921)" d="m295.76 427.7c19.73 16.76 46.47 27.07 75.94 27.07s56.24-10.31 75.97-27.07h-151.91z"/>
    <path id="path7717" transform="matrix(.55791 0 0 .55791 141.48 132.75)" fill="#2e3436" d="m325.27 384.65a19.193 23.234 0 1 1 -38.39 0 19.193 23.234 0 1 1 38.39 0z"/>
    <path id="path7722" transform="matrix(.55791 0 0 .55791 240.64 129.52)" fill="#2e3436" d="m325.27 384.65a19.193 23.234 0 1 1 -38.39 0 19.193 23.234 0 1 1 38.39 0z"/>
    <path id="path7892" fill="url(#linearGradient7942)" d="m312.08 335.08c-4.69 0-8.55 5.11-9.09 11.7 0 0 4.55-6.79 9.34-3.95 5.21 3.09 8.83 3.95 8.83 3.95-0.54-6.59-4.4-11.7-9.08-11.7z"/>
    <path id="path7896" fill="url(#linearGradient7939)" d="m411.55 332.18c-4.68 0-8.54 5.11-9.08 11.7 0 0 4.54-6.79 9.34-3.95 5.21 3.09 8.82 3.95 8.82 3.95-0.54-6.59-4.4-11.7-9.08-11.7z"/>
    <path id="path7977" fill="url(#linearGradient7979)" d="m168.42 335.57c-5.79 4.28-5.9 14.15-0.55 22.8 0 0-0.58-12.56 7.96-13.43 9.27-0.94 14.54-3.17 14.54-3.17-6.69-7.67-16.15-10.47-21.95-6.2z"/>
    <path id="path7981" fill="url(#linearGradient7983)" d="m567.79 332.79c-6.86-2.18-14.91 3.52-18.78 12.92 0 0 9.83-7.83 15.54-1.42 6.2 6.95 11.1 9.91 11.1 9.91 2.28-9.92-0.99-19.22-7.86-21.41z"/>
    <path id="path7997" fill-rule="evenodd" fill="url(#linearGradient8038)" d="m285.58 665.99c-0.23 0.01-0.45 0.03-0.68 0.06-2.98 0.37-5.87 0.92-8.7 1.65 14.72 5.9 27.18 20.92 34.86 41.07 0.01 0 0 0.02 0 0.02 0.75 0.88 1.49 1.79 2.21 2.78 0.74-3.39 1.17-5.41 1.17-5.41s-14.28-40.7-28.86-40.17zm-80.35 89.88c-0.01 0.03-0.02 0.07-0.03 0.1 0 0 0.02 0.01 0.03 0v-0.1zm-151.31 105.36c19.18-31.07 34.826-35.11 68.647-40.85 61.41-10.42 58.03 15.41 92.04 20.52-10.7-13.81-19.83-17.34-26.41-37.2-49.54-10.28-164.28 14-134.28 57.53z"/>
    <g id="g5218" transform="translate(8,11)" fill-rule="evenodd">
      <path id="path7820" fill="#eeeeec" d="m435.14 681.5s1.76 169.08 58.41 164.95 63.34-172.55-21.08-199.78c-14.58-4.7-37.33 34.83-37.33 34.83z"/>
      <path id="path7822" fill="#eeeeec" d="m470.72 834.69s124.02 96.15 189.48 74.44-47.88-120.38-169.5-107.13c-21 2.29-19.98 32.69-19.98 32.69z"/>
      <path id="path8040" fill="url(#linearGradient5223)" d="m478.63 656.17c0.22 0.06 0.43 0.12 0.65 0.2 2.83 1.01 5.54 2.16 8.15 3.48-15.64 2.62-31.01 14.64-42.81 32.69v0.03c-0.92 0.7-1.84 1.43-2.75 2.24 0-3.47 0.01-5.54 0.01-5.54s22.61-36.72 36.75-33.1zm59.37 104.93v0.11h-0.02c0.01-0.04 0.01-0.07 0.02-0.11zm125.39 135.17c-12.12-34.44-26.55-41.72-58.37-54.53-57.78-23.27-59.98 2.69-94.3 0.45 13.4-11.22 23.07-12.72 33.73-30.73 50.59 0.51 157.53 48.67 118.94 84.81z"/>
    </g>
    <path id="path7724" transform="matrix(.75445 0 0 .75445 78.091 48.815)" fill="#e9b96e" d="m444.29 463.43a67.143 63.214 0 1 1 -134.29 0 67.143 63.214 0 1 1 134.29 0z"/>
    <path id="path7964" fill="url(#linearGradient3237)" d="m409.6 402.2c-1.2 19.76-14.65 35.72-31.99 39.95 0 0-2.25-17.98 9.04-41.33 9.53-19.74-3.96-42.13-3.96-42.13 16.69 6.31 28.11 23.75 26.91 43.51z"/>
    <path id="path7196" fill="#d854a9" d="m382.43 389.44c0 9.76-8.46 7.98-20.09 17.68-6.78-10.78-20.1-7.92-20.1-17.68s9.01-17.68 20.1-17.68 20.09 7.92 20.09 17.68z"/>
    <path id="path7888" fill="url(#linearGradient7945)" d="m362.71 373.44c-10.2 0-18.62 6.8-19.79 15.56 0 0 9.89-9.02 20.35-5.25 11.35 4.1 19.22 5.25 19.22 5.25-1.17-8.76-9.59-15.56-19.78-15.56z"/>
  </g>
  <metadata>
    <rdf:RDF>
      <cc:Work>
        <dc:format>image/svg+xml</dc:format>
        <dc:type rdf:resource="http://purl.org/dc/dcmitype/StillImage"/>
        <cc:license rdf:resource="http://creativecommons.org/licenses/publicdomain/"/>
        <dc:publisher>
          <cc:Agent rdf:about="http://openclipart.org/">
            <dc:title>Openclipart</dc:title>
          </cc:Agent>
        </dc:publisher>
        <dc:title>doll rabbit</dc:title>
        <dc:date>2008-11-19T21:53:58</dc:date>
        <dc:description>clip art, clipart, doll, doll, image, media, png, public domain, puppet, puppet, rabbit, rabbit, svg, toy, toy, </dc:description>
        <dc:source>http://openclipart.org/detail/20291/doll-rabbit-by-rg1024-20291</dc:source>
        <dc:creator>
          <cc:Agent>
            <dc:title>rg1024</dc:title>
          </cc:Agent>
        </dc:creator>
        <dc:subject>
          <rdf:Bag>
            <rdf:li>clip art</rdf:li>
            <rdf:li>clipart</rdf:li>
            <rdf:li>doll</rdf:li>
            <rdf:li>image</rdf:li>
            <rdf:li>media</rdf:li>
            <rdf:li>png</rdf:li>
            <rdf:li>public domain</rdf:li>
            <rdf:li>puppet</rdf:li>
            <rdf:li>rabbit</rdf:li>
            <rdf:li>svg</rdf:li>
            <rdf:li>toy</rdf:li>
          </rdf:Bag>
        </dc:subject>
      </cc:Work>
      <cc:License rdf:about="http://creativecommons.org/licenses/publicdomain/">
        <cc:permits rdf:resource="http://creativecommons.org/ns#Reproduction"/>
        <cc:permits rdf:resource="http://creativecommons.org/ns#Distribution"/>
        <cc:permits rdf:resource="http://creativecommons.org/ns#DerivativeWorks"/>
      </cc:License>
    </rdf:RDF>
  </metadata>
</svg>
